<svg width="1920" height="1602" viewBox="0 0 1920 1602" fill="none" xmlns="http://www.w3.org/2000/svg">
<path opacity="0.11" d="M1896.27 122.738L1093.67 927.474V477.198L1447.18 122.738H1896.27Z" fill="url(#paint0_linear_348_46589)"/>
<path opacity="0.11" d="M1815.48 664.921L1489.64 991.511H1677.29L1999.8 668.259L1815.48 664.921Z" fill="#FFB75E"/>
<path opacity="0.17" d="M1948.54 633.97L1641.19 941.349H1677.93L1853.08 766.173H1942.49L2039.29 669.385L1948.54 633.97Z" fill="#5C5C5C" fill-opacity="0.29"/>
<path opacity="0.11" d="M1254.83 424.781L493.855 1187.89H569.326L1251.96 503.34L1254.83 424.781Z" fill="#5C5C5C" fill-opacity="0.29"/>
<path opacity="0.11" d="M538.682 1602L1202.41 938.146H1531.26L867.528 1602H538.682Z" fill="#5C5C5C" fill-opacity="0.29"/>
<path opacity="0.17" d="M897.29 133.057L683.833 345.802V259.573H754.991L892.279 122.738L897.29 133.057Z" fill="#5C5C5C" fill-opacity="0.29"/>
<path opacity="0.11" d="M1078.73 1206.53L1573.95 710.814V911.743H1485.61L1167.07 1230.58L1078.73 1206.53Z" fill="#5C5C5C" fill-opacity="0.29"/>
<path opacity="0.11" d="M888.005 185.708L562.162 512.298H749.813L1072.33 189.046L888.005 185.708Z" fill="#FFB75E"/>
<path opacity="0.17" d="M266.844 246.544L-59 573.134H128.651L451.164 249.882L266.844 246.544Z" fill="#FFB75E"/>
<path opacity="0.11" d="M999.75 1130.26V896.522L775.62 1119.92L999.75 1130.26Z" fill="#FFB75E"/>
<path opacity="0.11" d="M1381.84 143.017L1042.27 484.549H856.733L1196.32 143.017H1381.84Z" fill="#FFB75E"/>
<path opacity="0.11" d="M1021.07 154.757L713.717 462.136H750.461L925.605 286.96H1015.02L1111.82 190.172L1021.07 154.757Z" fill="#5C5C5C" fill-opacity="0.29"/>
<path opacity="0.11" d="M399.909 215.592L92.5549 522.971H129.299L304.443 347.795H393.857L490.654 251.007L399.909 215.592Z" fill="#5C5C5C" fill-opacity="0.29"/>
<path opacity="0.17" d="M1810.62 395.079L1076.96 1128.74L1080.63 1132.41L1814.3 398.753L1810.62 395.079Z" fill="#FFB75E"/>
<path opacity="0.17" d="M427.684 1159.68L431.348 1163.34L820.446 774.718V767.381L427.684 1159.68Z" fill="#FFB75E"/>
<path opacity="0.17" d="M427.684 1130.87L431.348 1134.53L820.446 745.884V738.563L427.684 1130.87Z" fill="#FFB75E"/>
<path opacity="0.17" d="M427.684 1103.11L431.348 1106.78L820.446 717.087V709.747L427.684 1103.11Z" fill="#FFB75E"/>
<path opacity="0.17" d="M427.684 1073.22L431.348 1076.89L820.446 687.22V679.862L427.684 1073.22Z" fill="#FFB75E"/>
<path opacity="0.17" d="M427.684 1044.41L431.348 1048.08L820.446 658.386V651.046L427.684 1044.41Z" fill="#FFB75E"/>
<path d="M127.83 697.577L186.297 612.778C187.6 610.889 190.539 612.324 189.852 614.513L144.326 759.487C143.625 761.718 146.669 763.133 147.922 761.158L263.654 578.904C264.908 576.929 267.951 578.344 267.25 580.575L195.793 808.127C195.081 810.395 198.212 811.79 199.422 809.745L336.196 578.579C337.452 576.456 340.687 578.044 339.776 580.336L236.874 839.094C235.961 841.389 239.205 842.976 240.456 840.846L381.626 600.55L289.03 801.266C288.026 803.444 291.007 805.222 292.446 803.304L388.931 674.67C390.28 672.871 393.113 674.324 392.439 676.469L346.609 822.411C345.905 824.653 348.975 826.062 350.216 824.066L411.32 725.817C412.562 723.822 415.631 725.231 414.927 727.473L390.621 804.875" stroke="#FFB75E" stroke-width="3" stroke-linecap="round"/>
<path d="M1528.11 191.682L1586.58 106.884C1587.88 104.995 1590.82 106.429 1590.13 108.618L1544.61 253.592C1543.91 255.824 1546.95 257.238 1548.2 255.264L1663.94 73.0093C1665.19 71.0348 1668.23 72.4491 1667.53 74.6807L1596.08 302.233C1595.36 304.5 1598.49 305.896 1599.7 303.85L1736.48 72.6841C1737.73 70.5612 1740.97 72.1495 1740.06 74.4416L1637.16 333.199C1636.24 335.495 1639.49 337.081 1640.74 334.951L1781.91 94.6551L1689.31 295.371C1688.31 297.549 1691.29 299.328 1692.73 297.409L1789.21 168.775C1790.56 166.976 1793.4 168.429 1792.72 170.575L1746.89 316.516C1746.19 318.758 1749.26 320.167 1750.5 318.172L1811.6 219.923C1812.84 217.927 1815.91 219.336 1815.21 221.578L1790.9 298.98" stroke="#FFB75E" stroke-width="3" stroke-linecap="round"/>
<defs>
<linearGradient id="paint0_linear_348_46589" x1="1798.44" y1="-4.31061" x2="1208.9" y2="583.676" gradientUnits="userSpaceOnUse">
<stop stop-color="#FFB75E"/>
<stop offset="1" stop-color="#FFB75E"/>
</linearGradient>
</defs>
</svg>
